<svg id="svg" xmlns="http://www.w3.org/2000/svg" xmlns:xlink="http://www.w3.org/1999/xlink" width="400" height="368.42105263157896" viewBox="0, 0, 400,368.42105263157896" version="1.1"><g id="svgg"><path id="path0" d="M0.000 184.211 L 0.000 368.421 200.000 368.421 L 400.000 368.421 400.000 184.211 L 400.000 0.000 200.000 0.000 L 0.000 0.000 0.000 184.211 M235.975 38.367 C 241.816 44.208,242.550 46.712,241.235 56.305 C 239.864 66.311,241.044 69.678,252.748 89.148 C 268.150 114.769,268.770 118.421,257.722 118.421 C 245.164 118.421,240.489 114.507,228.596 94.035 C 222.515 83.566,216.324 74.529,214.840 73.953 C 207.928 71.273,200.000 60.151,200.000 53.135 C 200.000 34.355,222.660 25.053,235.975 38.367 M214.527 45.688 C 210.084 48.937,209.837 50.341,212.630 56.470 C 216.292 64.510,225.176 64.902,229.981 57.237 C 236.003 47.630,224.069 38.711,214.527 45.688 M187.716 55.921 C 194.078 61.780,238.232 133.780,236.450 135.392 C 224.327 146.359,210.191 136.430,189.710 102.562 L 174.633 77.632 143.896 76.890 C 110.302 76.080,109.579 75.639,118.324 61.297 C 123.310 53.120,124.108 52.829,143.972 51.958 C 155.248 51.464,168.256 50.821,172.880 50.530 C 178.478 50.177,183.433 51.978,187.716 55.921 M279.542 53.289 C 284.228 56.932,306.409 93.806,309.196 102.586 C 311.178 108.831,266.932 189.373,261.484 189.438 C 256.934 189.492,249.441 171.695,251.407 165.502 C 252.352 162.524,259.528 148.999,267.352 135.446 C 284.642 105.501,284.606 107.406,268.421 78.696 C 252.822 51.024,253.200 53.221,263.816 51.904 C 268.520 51.320,273.030 50.653,273.839 50.421 C 274.648 50.190,277.214 51.480,279.542 53.289 M113.365 90.995 C 116.409 93.737,125.026 94.737,145.602 94.737 C 177.328 94.737,179.937 96.783,165.992 110.729 C 158.814 117.907,156.937 118.421,137.910 118.421 C 122.572 118.421,116.319 119.508,112.673 122.807 C 102.172 132.310,80.891 125.239,78.177 111.345 C 74.197 90.968,98.033 77.183,113.365 90.995 M92.105 100.000 C 87.823 104.282,87.291 106.448,89.506 110.587 C 92.974 117.068,104.228 117.442,107.447 111.184 C 112.993 100.400,100.681 91.424,92.105 100.000 M341.278 118.880 C 353.130 130.014,347.018 149.977,330.487 154.126 C 325.725 155.322,320.368 162.170,310.363 179.851 C 293.629 209.427,295.287 207.816,289.247 200.366 C 281.532 190.850,283.025 179.933,294.737 160.219 C 300.614 150.327,305.263 139.083,305.263 134.763 C 305.263 115.750,327.505 105.941,341.278 118.880 M318.523 128.757 C 313.260 138.590,321.936 147.266,331.770 142.003 C 337.491 138.941,338.421 131.579,333.684 126.842 C 328.948 122.106,321.585 123.035,318.523 128.757 M176.316 134.064 C 176.316 149.398,166.160 153.879,129.168 154.870 C 89.793 155.924,94.202 153.252,75.324 187.500 C 64.365 207.379,61.257 208.825,54.605 197.139 C 48.296 186.053,48.288 186.085,64.138 157.895 L 78.194 132.895 110.808 131.454 C 178.359 128.471,176.316 128.390,176.316 134.064 M119.564 176.790 L 124.655 186.120 112.427 207.702 C 103.210 223.971,100.556 231.069,101.648 236.532 C 105.184 254.208,82.204 266.670,67.460 255.072 C 55.128 245.372,61.439 218.599,76.117 218.351 C 78.618 218.309,85.986 207.860,94.686 192.018 C 110.259 163.661,111.865 162.679,119.564 176.790 M351.535 175.065 L 356.530 184.340 347.344 201.369 C 342.292 210.735,335.142 222.844,331.455 228.278 L 324.752 238.158 278.916 238.880 C 224.678 239.735,224.684 239.736,230.297 228.882 C 236.012 217.830,243.177 215.789,276.272 215.789 C 312.590 215.789,310.677 216.803,326.467 189.210 C 341.337 163.225,344.268 161.571,351.535 175.065 M155.263 199.127 C 155.263 202.827,148.158 218.213,139.474 233.319 C 120.510 266.304,120.707 262.138,136.847 288.974 C 153.309 316.345,153.410 318.421,138.279 318.421 L 126.558 318.421 111.963 293.964 C 92.630 261.567,90.791 271.104,129.784 201.534 L 142.936 178.068 149.100 185.233 C 152.490 189.174,155.263 195.426,155.263 199.127 M74.211 232.105 C 66.834 239.482,74.010 251.922,83.841 248.801 C 90.473 246.696,92.812 240.447,89.372 234.020 C 86.310 228.299,78.947 227.369,74.211 232.105 M198.867 241.447 C 202.559 246.875,211.190 260.789,218.047 272.368 L 230.514 293.421 261.281 294.737 L 292.049 296.053 288.016 303.947 C 281.290 317.114,277.612 318.421,247.273 318.421 C 214.038 318.421,219.107 322.501,189.902 272.246 C 164.664 228.817,165.317 231.579,180.288 231.579 C 191.054 231.579,192.778 232.495,198.867 241.447 M326.412 253.289 C 338.601 273.027,316.843 295.310,297.919 282.469 C 292.457 278.763,284.025 277.324,261.871 276.316 C 229.464 274.841,225.267 271.862,237.857 259.272 C 243.934 253.196,246.463 252.624,267.644 252.548 C 283.813 252.489,292.329 251.300,295.898 248.601 C 305.536 241.311,320.427 243.599,326.412 253.289 M166.391 257.237 C 168.618 259.770,173.100 267.171,176.351 273.684 C 179.603 280.197,187.674 290.527,194.287 296.640 C 213.482 314.383,208.752 336.990,185.893 336.758 C 171.562 336.613,159.923 321.489,165.755 310.591 C 167.813 306.745,165.361 300.637,153.941 281.158 C 146.015 267.640,139.518 255.691,139.502 254.605 C 139.441 250.385,162.337 252.626,166.391 257.237 M301.754 257.018 C 298.627 260.145,299.897 270.323,303.821 273.579 C 312.279 280.599,323.490 269.491,317.946 259.584 C 315.548 255.299,305.125 253.647,301.754 257.018 M180.269 308.881 C 173.602 313.756,176.058 324.778,184.063 325.908 C 192.139 327.048,198.242 319.708,194.708 313.104 C 191.290 306.717,185.532 305.033,180.269 308.881 " stroke="none" fill="#000000" fill-rule="evenodd"></path></g></svg>